<svg class="border shadow-md" viewBox="0 0 888.2133333333333 666.16" xmlns="http://www.w3.org/2000/svg" preserveAspectRatio="none" style="width: 888.213px; height: 666.16px;"><rect class="bg" id="bg" x="0" y="0" width="888.2133333333333" height="666.16" fill="#1A1E25"/><path opacity="0.09" stroke-linecap="round" d="M 870 124 S 212.9466666666667 284.0533333333333 425.8933333333334 568.1066666666666 -9.106666666666626 506.10666666666657 -18.213333333333253 1012.2133333333331 -231.15999999999994 728.1599999999999 -462.3199999999999 1456.3199999999997" stroke="#434040" stroke-width="2" fill="none"/><path opacity="0.09" stroke-linecap="round" d="M 710 278 S 132.9466666666667 361.0533333333333 265.8933333333334 722.1066666666666 355 138.99999999999997 710 277.99999999999994 577.0533333333333 -83.05333333333334 1154.1066666666666 -166.10666666666668" stroke="#434040" stroke-width="2" fill="none"/><path opacity="0.09" stroke-linecap="round" d="M 868 426 S 211.9466666666667 435.0533333333333 423.8933333333334 870.1066666666666 -10.106666666666626 657.1066666666666 -20.213333333333253 1314.2133333333331 -232.15999999999994 879.1599999999999 -464.3199999999999 1758.3199999999997" stroke="#434040" stroke-width="2" fill="none"/><path opacity="0.09" stroke-linecap="round" d="M 479 609 S 461.5533333333333 82.44666666666669 923.1066666666666 164.89333333333337 239.49999999999997 304.5 478.99999999999994 609 461.5533333333333 82.44666666666669 923.1066666666666 164.89333333333337" stroke="#434040" stroke-width="2" fill="none"/><path opacity="0.09" stroke-linecap="round" d="M 137 71 S 290.5533333333333 -186.5533333333333 581.1066666666666 -373.1066666666666 68.49999999999997 35.5 136.99999999999994 71 290.5533333333333 -186.5533333333333 581.1066666666666 -373.1066666666666" stroke="#434040" stroke-width="2" fill="none"/><path opacity="0.09" stroke-linecap="round" d="M 490 575 S 22.946666666666687 509.5533333333333 45.89333333333337 1019.1066666666666 -199.10666666666663 731.6066666666666 -398.21333333333325 1463.2133333333331 22.946666666666687 509.5533333333333 45.89333333333337 1019.1066666666666" stroke="#434040" stroke-width="2" fill="none"/><path opacity="0.09" stroke-linecap="round" d="M 25 441 S 234.5533333333333 -1.5533333333333132 469.1066666666666 -3.1066666666666265 456.6066666666666 -223.60666666666663 913.2133333333333 -447.21333333333325 234.5533333333333 -1.5533333333333132 469.1066666666666 -3.1066666666666265" stroke="#434040" stroke-width="2" fill="none"/><path opacity="0.09" stroke-linecap="round" d="M 168 490 S -138.0533333333333 467.0533333333333 -276.1066666666666 934.1066666666666 -360.1066666666666 689.1066666666666 -720.2133333333333 1378.2133333333331 -582.16 911.1599999999999 -1164.32 1822.3199999999997" stroke="#434040" stroke-width="2" fill="none"/><path opacity="0.09" stroke-linecap="round" d="M 64 137 S -190.0533333333333 290.5533333333333 -380.1066666666666 581.1066666666666 32 68.49999999999997 64 136.99999999999994 -190.0533333333333 290.5533333333333 -380.1066666666666 581.1066666666666" stroke="#434040" stroke-width="2" fill="none"/><path opacity="0.09" stroke-linecap="round" d="M 17 473 S 230.5533333333333 14.446666666666687 461.1066666666666 28.893333333333374 8.5 236.5 17 473 -213.5533333333333 458.5533333333333 -427.1066666666666 917.1066666666666" stroke="#434040" stroke-width="2" fill="none"/><path opacity="0.09" stroke-linecap="round" d="M 59 266 S -192.5533333333333 355.0533333333333 -385.1066666666666 710.1066666666666 -414.6066666666666 577.1066666666666 -829.2133333333333 1154.2133333333331 -192.5533333333333 355.0533333333333 -385.1066666666666 710.1066666666666" stroke="#434040" stroke-width="2" fill="none"/><path opacity="0.09" stroke-linecap="round" d="M 555 107 S 499.5533333333333 -168.5533333333333 999.1066666666666 -337.1066666666666 721.6066666666666 -390.6066666666666 1443.2133333333331 -781.2133333333333 499.5533333333333 -168.5533333333333 999.1066666666666 -337.1066666666666" stroke="#434040" stroke-width="2" fill="none"/><path opacity="0.09" stroke-linecap="round" d="M 799 133 S 621.5533333333333 -155.5533333333333 1243.1066666666666 -311.1066666666666 399.5 66.5 799 133 177.4466666666667 288.5533333333333 354.8933333333334 577.1066666666666" stroke="#434040" stroke-width="2" fill="none"/><path opacity="0.09" stroke-linecap="round" d="M 747 154 S 595.5533333333333 -145.0533333333333 1191.1066666666666 -290.1066666666666 373.5 77 747 154 151.4466666666667 299.0533333333333 302.8933333333334 598.1066666666666" stroke="#434040" stroke-width="2" fill="none"/><path opacity="0.09" stroke-linecap="round" d="M 79 312 S 261.5533333333333 -66.05333333333331 523.1066666666666 -132.10666666666663 483.60666666666657 -288.1066666666666 967.2133333333331 -576.2133333333333 261.5533333333333 -66.05333333333331 523.1066666666666 -132.10666666666663" stroke="#434040" stroke-width="2" fill="none"/><path opacity="0.09" stroke-linecap="round" d="M 563 185 S 503.5533333333333 -129.5533333333333 1007.1066666666666 -259.1066666666666 281.5 92.5 563 185 503.5533333333333 -129.5533333333333 1007.1066666666666 -259.1066666666666" stroke="#434040" stroke-width="2" fill="none"/><path opacity="0.09" stroke-linecap="round" d="M 554 400 S 54.94666666666669 422.0533333333333 109.89333333333337 844.1066666666666 277 199.99999999999997 554 399.99999999999994 54.94666666666669 422.0533333333333 109.89333333333337 844.1066666666666" stroke="#434040" stroke-width="2" fill="none"/><path opacity="0.09" stroke-linecap="round" d="M 63 186 S -190.5533333333333 315.0533333333333 -381.1066666666666 630.1066666666666 -412.6066666666666 537.1066666666666 -825.2133333333333 1074.2133333333331 -190.5533333333333 315.0533333333333 -381.1066666666666 630.1066666666666" stroke="#434040" stroke-width="2" fill="none"/><path opacity="0.09" stroke-linecap="round" d="M 775 261 S 165.4466666666667 352.5533333333333 330.8933333333334 705.1066666666666 -56.60666666666663 574.6066666666666 -113.21333333333325 1149.2133333333331 -278.65999999999997 796.6599999999999 -557.3199999999999 1593.3199999999997" stroke="#434040" stroke-width="2" fill="none"/><path opacity="0.09" stroke-linecap="round" d="M 597 246 S 520.5533333333333 -99.05333333333331 1041.1066666666666 -198.10666666666663 298.5 123 597 246 520.5533333333333 -99.05333333333331 1041.1066666666666 -198.10666666666663" stroke="#434040" stroke-width="2" fill="none"/><path opacity="0.09" stroke-linecap="round" d="M 791 226 S 173.4466666666667 335.0533333333333 346.8933333333334 670.1066666666666 -48.60666666666663 557.1066666666666 -97.21333333333325 1114.2133333333331 -270.65999999999997 779.1599999999999 -541.3199999999999 1558.3199999999997" stroke="#434040" stroke-width="2" fill="none"/><path opacity="0.09" stroke-linecap="round" d="M 210 9 S -117.05333333333331 226.5533333333333 -234.10666666666663 453.1066666666666 105 4.5 210 9 -117.05333333333331 226.5533333333333 -234.10666666666663 453.1066666666666" stroke="#434040" stroke-width="2" fill="none"/><path opacity="0.09" stroke-linecap="round" d="M 82 127 S -181.0533333333333 285.5533333333333 -362.1066666666666 571.1066666666666 41 63.49999999999997 82 126.99999999999994 -181.0533333333333 285.5533333333333 -362.1066666666666 571.1066666666666" stroke="#434040" stroke-width="2" fill="none"/><path opacity="0.09" stroke-linecap="round" d="M 658 443 S 551.0533333333333 -0.5533333333333132 1102.1066666666666 -1.1066666666666265 773.1066666666666 -222.60666666666663 1546.2133333333331 -445.21333333333325 995.1599999999999 -444.65999999999997 1990.3199999999997 -889.3199999999999" stroke="#434040" stroke-width="2" fill="none"/><path opacity="0.09" stroke-linecap="round" d="M 354 310 S -45.05333333333331 377.0533333333333 -90.10666666666663 754.1066666666666 177 154.99999999999997 354 309.99999999999994 -45.05333333333331 377.0533333333333 -90.10666666666663 754.1066666666666" stroke="#434040" stroke-width="2" fill="none"/><path opacity="0.09" stroke-linecap="round" d="M 246 18 S -99.05333333333331 231.0533333333333 -198.10666666666663 462.1066666666666 123 9 246 18 345.0533333333333 -213.0533333333333 690.1066666666666 -426.1066666666666" stroke="#434040" stroke-width="2" fill="none"/><path opacity="0.09" stroke-linecap="round" d="M 456 217 S 5.946666666666687 330.5533333333333 11.893333333333374 661.1066666666666 -216.10666666666663 552.6066666666666 -432.21333333333325 1105.2133333333331 -438.15999999999997 774.6599999999999 -876.3199999999999 1549.3199999999997" stroke="#434040" stroke-width="2" fill="none"/><path opacity="0.09" stroke-linecap="round" d="M 66 103 S -189.0533333333333 273.5533333333333 -378.1066666666666 547.1066666666666 -411.1066666666666 495.60666666666657 -822.2133333333333 991.2133333333331 -189.0533333333333 273.5533333333333 -378.1066666666666 547.1066666666666" stroke="#434040" stroke-width="2" fill="none"/><path opacity="0.09" stroke-linecap="round" d="M 868 11 S 211.9466666666667 227.5533333333333 423.8933333333334 455.1066666666666 -10.106666666666626 449.6066666666666 -20.213333333333253 899.2133333333333 -232.15999999999994 671.66 -464.3199999999999 1343.32" stroke="#434040" stroke-width="2" fill="none"/><path opacity="0.09" stroke-linecap="round" d="M 856 432 S 205.9466666666667 438.0533333333333 411.8933333333334 876.1066666666666 428 215.99999999999997 856 431.99999999999994 205.9466666666667 438.0533333333333 411.8933333333334 876.1066666666666" stroke="#434040" stroke-width="2" fill="none"/><path opacity="0.09" stroke-linecap="round" d="M 756 44 S 155.9466666666667 244.0533333333333 311.8933333333334 488.1066666666666 -66.10666666666663 466.1066666666666 -132.21333333333325 932.2133333333333 -288.15999999999997 688.16 -576.3199999999999 1376.32" stroke="#434040" stroke-width="2" fill="none"/></svg>